HIERARCHY
ROOT Hips
{
	OFFSET 0.000000 100.481300 0.000000
	CHANNELS 6 Xposition Yposition Zposition Xrotation Yrotation Zrotation 
	JOINT Spine
	{
		OFFSET -0.279200 12.230698 -2.892100
		CHANNELS 3 Xrotation Yrotation Zrotation
		JOINT Spine1
		{
			OFFSET -0.232667 10.192268 -1.242267
			CHANNELS 3 Xrotation Yrotation Zrotation
			JOINT Spine1_split
			{
				OFFSET -0.232667 10.192268 -1.242267
				CHANNELS 3 Xrotation Yrotation Zrotation
				JOINT Spine2
				{
					OFFSET -0.232667 10.192268 -1.242267
					CHANNELS 3 Xrotation Yrotation Zrotation
					JOINT Neck
					{
						OFFSET -0.418800 17.814194 8.416900
						CHANNELS 3 Xrotation Yrotation Zrotation
						JOINT Head
						{
							OFFSET 0.000000 7.031097 3.806800
							CHANNELS 3 Xrotation Yrotation Zrotation
							JOINT HeadTop_End
							{
								OFFSET 0.000000 24.646606 12.978600
								CHANNELS 3 Xrotation Yrotation Zrotation
								End Site
								{
									OFFSET 0.000000 0.000000 0.000000
								}
							}
						}
					}
					JOINT LeftShoulder
					{
						OFFSET 8.476499 7.247704 -3.868750
						CHANNELS 3 Xrotation Yrotation Zrotation
						JOINT LeftShoulder_split
						{
							OFFSET 8.476499 7.247704 -3.868750
							CHANNELS 3 Xrotation Yrotation Zrotation
							JOINT LeftArm
							{
								OFFSET 9.308998 -2.777710 0.208600
								CHANNELS 3 Xrotation Yrotation Zrotation
								JOINT LeftForeArm
								{
									OFFSET 29.972298 0.000000 0.000000
									CHANNELS 3 Xrotation Yrotation Zrotation
									JOINT LeftHand
									{
										OFFSET 26.026505 0.000000 0.000000
										CHANNELS 3 Xrotation Yrotation Zrotation
										JOINT LeftHandThumb1
										{
											OFFSET 12.240501 -7.147949 9.207150
											CHANNELS 3 Xrotation Yrotation Zrotation
											JOINT LeftHandThumb2
											{
												OFFSET 4.138618 -2.389435 2.389433
												CHANNELS 3 Xrotation Yrotation Zrotation
												JOINT LeftHandThumb3
												{
													OFFSET 2.726913 -1.574387 1.574386
													CHANNELS 3 Xrotation Yrotation Zrotation
													JOINT LeftHandThumb4
													{
														OFFSET 3.941010 -2.275345 2.275342
														CHANNELS 3 Xrotation Yrotation Zrotation
														End Site
														{
															OFFSET 0.000000 0.000000 0.000000
														}
													}
												}
											}
										}
										JOINT LeftHandIndex1
										{
											OFFSET 24.424698 -1.985611 5.953459
											CHANNELS 3 Xrotation Yrotation Zrotation
											JOINT LeftHandIndex2
											{
												OFFSET 6.426697 0.000000 0.000000
												CHANNELS 3 Xrotation Yrotation Zrotation
												JOINT LeftHandIndex3
												{
													OFFSET 5.337898 0.000000 0.000000
													CHANNELS 3 Xrotation Yrotation Zrotation
													JOINT LeftHandIndex4
													{
														OFFSET 4.409401 0.000000 0.000000
														CHANNELS 3 Xrotation Yrotation Zrotation
														End Site
														{
															OFFSET 0.000000 0.000000 0.000000
														}
													}
												}
											}
										}
										JOINT LeftHandMiddle1
										{
											OFFSET 23.810104 0.000000 0.000000
											CHANNELS 3 Xrotation Yrotation Zrotation
											JOINT LeftHandMiddle2
											{
												OFFSET 7.176498 0.000000 0.000000
												CHANNELS 3 Xrotation Yrotation Zrotation
												JOINT LeftHandMiddle3
												{
													OFFSET 6.774902 0.000000 0.000000
													CHANNELS 3 Xrotation Yrotation Zrotation
													JOINT LeftHandMiddle4
													{
														OFFSET 5.403328 0.000000 0.000000
														CHANNELS 3 Xrotation Yrotation Zrotation
														End Site
														{
															OFFSET 0.000000 0.000000 0.000000
														}
													}
												}
											}
										}
										JOINT LeftHandRing1
										{
											OFFSET 22.908401 -0.839279 -6.020567
											CHANNELS 3 Xrotation Yrotation Zrotation
											JOINT LeftHandRing2
											{
												OFFSET 6.337502 0.000000 0.000000
												CHANNELS 3 Xrotation Yrotation Zrotation
												JOINT LeftHandRing3
												{
													OFFSET 5.779297 0.000000 0.000000
													CHANNELS 3 Xrotation Yrotation Zrotation
													JOINT LeftHandRing4
													{
														OFFSET 4.965698 0.000000 0.000000
														CHANNELS 3 Xrotation Yrotation Zrotation
														End Site
														{
															OFFSET 0.000000 0.000000 0.000000
														}
													}
												}
											}
										}
										JOINT LeftHandPinky1
										{
											OFFSET 20.037003 -1.530319 -10.950146
											CHANNELS 3 Xrotation Yrotation Zrotation
											JOINT LeftHandPinky2
											{
												OFFSET 5.254700 0.000000 0.000000
												CHANNELS 3 Xrotation Yrotation Zrotation
												JOINT LeftHandPinky3
												{
													OFFSET 4.810204 0.000000 0.000000
													CHANNELS 3 Xrotation Yrotation Zrotation
													JOINT LeftHandPinky4
													{
														OFFSET 3.647202 0.000000 0.000000
														CHANNELS 3 Xrotation Yrotation Zrotation
														End Site
														{
															OFFSET 0.000000 0.000000 0.000000
														}
													}
												}
											}
										}
									}
								}
							}
						}
					}
					JOINT RightShoulder
					{
						OFFSET -7.570500 7.247704 -3.868750
						CHANNELS 3 Xrotation Yrotation Zrotation
						JOINT RightShoulder_split
						{
							OFFSET -7.570500 7.247704 -3.868750
							CHANNELS 3 Xrotation Yrotation Zrotation
							JOINT RightArm
							{
								OFFSET -9.308998 -2.777710 0.208500
								CHANNELS 3 Xrotation Yrotation Zrotation
								JOINT RightForeArm
								{
									OFFSET -29.972300 0.000000 0.000000
									CHANNELS 3 Xrotation Yrotation Zrotation
									JOINT RightHand
									{
										OFFSET -26.026505 0.000000 0.000000
										CHANNELS 3 Xrotation Yrotation Zrotation
										JOINT RightHandThumb1
										{
											OFFSET -12.240601 -7.148026 9.207092
											CHANNELS 3 Xrotation Yrotation Zrotation
											JOINT RightHandThumb2
											{
												OFFSET -4.138618 -2.389435 2.389433
												CHANNELS 3 Xrotation Yrotation Zrotation
												JOINT RightHandThumb3
												{
													OFFSET -2.726974 -1.574417 1.574421
													CHANNELS 3 Xrotation Yrotation Zrotation
													JOINT RightHandThumb4
													{
														OFFSET -3.941010 -2.275345 2.275343
														CHANNELS 3 Xrotation Yrotation Zrotation
														End Site
														{
															OFFSET 0.000000 0.000000 0.000000
														}
													}
												}
											}
										}
										JOINT RightHandIndex1
										{
											OFFSET -24.424698 -1.985657 5.953444
											CHANNELS 3 Xrotation Yrotation Zrotation
											JOINT RightHandIndex2
											{
												OFFSET -6.426697 0.000000 0.000000
												CHANNELS 3 Xrotation Yrotation Zrotation
												JOINT RightHandIndex3
												{
													OFFSET -5.337898 0.000000 0.000000
													CHANNELS 3 Xrotation Yrotation Zrotation
													JOINT RightHandIndex4
													{
														OFFSET -4.409401 0.000000 0.000000
														CHANNELS 3 Xrotation Yrotation Zrotation
														End Site
														{
															OFFSET 0.000000 0.000000 0.000000
														}
													}
												}
											}
										}
										JOINT RightHandMiddle1
										{
											OFFSET -23.810097 0.000000 0.000000
											CHANNELS 3 Xrotation Yrotation Zrotation
											JOINT RightHandMiddle2
											{
												OFFSET -7.176498 0.000000 0.000000
												CHANNELS 3 Xrotation Yrotation Zrotation
												JOINT RightHandMiddle3
												{
													OFFSET -6.774902 0.000000 0.000000
													CHANNELS 3 Xrotation Yrotation Zrotation
													JOINT RightHandMiddle4
													{
														OFFSET -5.403328 0.000000 0.000000
														CHANNELS 3 Xrotation Yrotation Zrotation
														End Site
														{
															OFFSET 0.000000 0.000000 0.000000
														}
													}
												}
											}
										}
										JOINT RightHandRing1
										{
											OFFSET -22.908302 -0.839325 -6.020576
											CHANNELS 3 Xrotation Yrotation Zrotation
											JOINT RightHandRing2
											{
												OFFSET -6.337502 0.000000 0.000000
												CHANNELS 3 Xrotation Yrotation Zrotation
												JOINT RightHandRing3
												{
													OFFSET -5.779297 0.000000 0.000000
													CHANNELS 3 Xrotation Yrotation Zrotation
													JOINT RightHandRing4
													{
														OFFSET -4.965698 0.000000 0.000000
														CHANNELS 3 Xrotation Yrotation Zrotation
														End Site
														{
															OFFSET 0.000000 0.000000 0.000000
														}
													}
												}
											}
										}
										JOINT RightHandPinky1
										{
											OFFSET -20.037003 -1.530334 -10.950259
											CHANNELS 3 Xrotation Yrotation Zrotation
											JOINT RightHandPinky2
											{
												OFFSET -5.254700 0.000000 0.000000
												CHANNELS 3 Xrotation Yrotation Zrotation
												JOINT RightHandPinky3
												{
													OFFSET -4.810204 0.000000 0.000000
													CHANNELS 3 Xrotation Yrotation Zrotation
													JOINT RightHandPinky4
													{
														OFFSET -3.647202 0.000000 0.000000
														CHANNELS 3 Xrotation Yrotation Zrotation
														End Site
														{
															OFFSET 0.000000 0.000000 0.000000
														}
													}
												}
											}
										}
									}
								}
							}
						}
					}
				}
			}
		}
	}
	JOINT LeftUpLeg
	{
		OFFSET 15.427100 -6.655098 0.678600
		CHANNELS 3 Xrotation Yrotation Zrotation
		JOINT LeftLeg
		{
			OFFSET 4.081073 -39.591068 13.024000
			CHANNELS 3 Xrotation Yrotation Zrotation
			JOINT LeftFoot
			{
				OFFSET -4.081074 -37.707932 -15.979700
				CHANNELS 3 Xrotation Yrotation Zrotation
				JOINT LeftToeBase
				{
					OFFSET 5.346399 -15.068900 20.645000
					CHANNELS 3 Xrotation Yrotation Zrotation
					JOINT LeftToe_End
					{
						OFFSET 2.754700 0.931300 11.300900
						CHANNELS 3 Xrotation Yrotation Zrotation
						End Site
						{
							OFFSET 0.000000 0.000000 0.000000
						}
					}
				}
			}
		}
	}
	JOINT RightUpLeg
	{
		OFFSET -15.569500 -6.655098 0.678600
		CHANNELS 3 Xrotation Yrotation Zrotation
		JOINT RightLeg
		{
			OFFSET -4.081825 -39.591045 13.023800
			CHANNELS 3 Xrotation Yrotation Zrotation
			JOINT RightFoot
			{
				OFFSET 4.081824 -37.707954 -15.979600
				CHANNELS 3 Xrotation Yrotation Zrotation
				JOINT RightToeBase
				{
					OFFSET -5.346400 -15.068900 20.645000
					CHANNELS 3 Xrotation Yrotation Zrotation
					JOINT RightToe_End
					{
						OFFSET -2.754700 0.931300 11.300900
						CHANNELS 3 Xrotation Yrotation Zrotation
						End Site
						{
							OFFSET 0.000000 0.000000 0.000000
						}
					}
				}
			}
		}
	}
}
MOTION
Frames: 5
Frame Time: 0.016667
-0.035155 42.575989 -7.154060 72.664504 -1.781225 -0.842620 0.751177 -0.153836 0.064438 1.989890 -0.361037 0.703952 0.000000 0.000000 0.000000 1.989557 -0.369635 0.705793 -9.204230 -0.704416 3.164577 0.129149 2.292099 -4.360971 -0.000001 0.000000 0.000000 1.107201 -1.022677 0.366518 0.000000 0.000000 0.000000 -53.198141 -52.390184 -60.733769 -0.000006 -9.465323 -0.000004 10.586324 -19.105161 86.700413 -1.335219 3.247028 11.085635 10.126214 -4.458093 7.651883 1.077481 -7.608459 23.794123 -0.000002 -0.000001 0.000001 -4.827147 -13.400629 -17.576717 0.100498 1.081548 -10.616097 0.016776 -0.443535 4.332395 -0.000001 -0.000000 0.000000 -3.573209 -14.167604 -13.089246 0.077341 0.949764 -9.309783 0.068706 0.895572 -8.774295 0.000001 0.000000 0.000000 0.216154 -14.772471 -0.362648 0.436537 2.220934 -22.237334 0.478342 2.320448 -23.292583 0.000000 0.000000 0.000001 -11.565757 -10.889330 18.851085 1.477791 3.890870 -41.581959 0.586265 2.556416 -25.829030 -0.000001 -0.000001 -0.000002 1.721913 3.722436 14.170263 0.000000 0.000000 0.000000 -57.852945 62.510424 58.216325 0.000007 10.622215 -0.000013 22.462843 6.417969 -82.516752 -0.201460 3.035651 -7.196450 8.074860 6.487042 -14.042690 5.826182 15.094086 -37.811473 0.000000 -0.000001 0.000002 -3.768174 8.510246 18.931739 -0.000000 -0.000000 0.000001 0.115882 -1.033520 12.794592 0.000001 0.000000 -0.000000 -0.238723 9.461323 1.884915 0.696245 -2.451508 31.705431 0.178749 -1.279171 15.908793 -0.000000 -0.000000 0.000002 -0.642238 6.921379 4.616461 0.435038 -1.967187 24.937688 0.263191 -1.544944 19.334582 0.000000 -0.000000 0.000001 -8.414065 -1.159947 -7.808914 0.946329 -2.816008 37.143655 0.177131 -1.273467 15.836132 -0.000000 0.000001 -0.000001 1.181722 11.229021 3.084116 9.598999 4.426394 1.962208 -40.697392 6.521240 -5.457876 -28.160523 0.938298 -10.577263 0.000002 0.000000 -0.000000 -2.137068 -7.646663 -2.417163 13.244110 3.044407 -1.154799 -32.369974 -5.071976 4.868104 -41.950223 -1.853567 8.414823 0.000001 -0.000000 -0.000000 
-0.048529 42.616104 -7.169273 72.691518 -1.787518 -0.843792 0.762721 -0.151590 0.058295 2.014336 -0.356034 0.696149 0.000000 0.000000 0.000000 2.017222 -0.364456 0.698349 -9.222157 -0.707646 3.170100 0.081695 2.286394 -4.356596 0.000002 -0.000000 -0.000000 1.106203 -1.019218 0.444195 0.000000 0.000000 0.000000 -53.325794 -52.446011 -60.786150 -0.000009 -9.373378 -0.000022 10.495909 -19.160192 86.594156 -1.335175 3.246648 11.085993 10.147843 -4.457507 7.634730 1.074254 -7.612189 23.792341 -0.000002 0.000000 0.000001 -4.837820 -13.407078 -17.604550 0.100312 1.080589 -10.606292 0.016772 -0.443508 4.331904 -0.000001 -0.000001 -0.000001 -3.580318 -14.174213 -13.107834 0.077271 0.949389 -9.306210 0.068566 0.894624 -8.764970 -0.000002 -0.000000 0.000002 0.214326 -14.770902 -0.368763 0.436228 2.220190 -22.229286 0.477995 2.319643 -23.283977 0.000000 -0.000002 0.000006 -11.556535 -10.896232 18.883827 1.482255 3.895872 -41.647710 0.585615 2.555066 -25.814212 -0.000001 -0.000001 -0.000003 1.692456 3.818572 14.166781 0.000000 0.000000 0.000000 -57.419044 62.383041 57.737652 0.000003 11.015428 -0.000009 22.411398 6.229440 -82.455519 -0.201458 3.035638 -7.196449 8.074861 6.487038 -14.042697 5.825586 15.094254 -37.811302 0.000000 -0.000001 0.000003 -3.768108 8.510259 18.931748 -0.000002 -0.000000 0.000001 0.115884 -1.033527 12.794591 -0.000000 -0.000000 -0.000001 -0.238720 9.461310 1.884914 0.696241 -2.451496 31.705427 0.178749 -1.279146 15.908800 -0.000001 0.000000 0.000001 -0.642234 6.921363 4.616454 0.435031 -1.967176 24.937704 0.263189 -1.544951 19.334577 -0.000000 -0.000000 0.000001 -8.414064 -1.159941 -7.808919 0.946328 -2.816030 37.143651 0.177134 -1.273480 15.836130 -0.000004 -0.000000 0.000002 1.138645 11.217418 3.092411 9.570856 4.489494 1.971904 -40.717312 6.524995 -5.454996 -28.158210 0.929990 -10.522840 0.000001 0.000001 -0.000000 -2.178816 -7.637002 -2.401302 13.223269 3.002520 -1.148145 -32.376569 -5.067777 4.846249 -41.841671 -1.850157 8.453828 0.000000 0.000001 -0.000000 
-0.065516 42.662224 -7.182976 72.720928 -1.786444 -0.839621 0.777901 -0.150121 0.044765 2.046987 -0.353058 0.686805 0.000000 0.000000 0.000000 2.059591 -0.360989 0.690020 -9.236219 -0.710649 3.176450 0.030648 2.283026 -4.346892 0.000002 -0.000000 -0.000000 1.109420 -1.047178 0.617681 0.000000 0.000000 0.000000 -53.300194 -52.427248 -60.726099 -0.000000 -9.495819 -0.000001 10.330545 -19.116402 86.488438 -1.335054 3.245444 11.087060 10.172724 -4.455066 7.614905 1.067679 -7.620484 23.794477 -0.000001 -0.000001 -0.000000 -4.849311 -13.415390 -17.633322 0.101666 1.087817 -10.678347 0.016766 -0.443352 4.330536 0.000000 -0.000000 -0.000003 -3.576261 -14.185616 -13.088179 0.077288 0.949504 -9.307378 0.068390 0.893533 -8.754086 -0.000000 -0.000000 0.000000 0.213943 -14.771011 -0.370089 0.436397 2.220586 -22.233869 0.478078 2.319842 -23.286009 -0.000000 -0.000001 0.000003 -11.537930 -10.909918 18.948270 1.491650 3.906403 -41.785851 0.585005 2.553813 -25.800437 -0.000003 0.000000 -0.000002 1.608451 4.068151 14.154882 0.000000 0.000000 0.000000 -56.074767 61.951639 56.389219 -0.000003 12.166844 -0.000009 22.338137 5.692543 -82.256597 -0.201457 3.035648 -7.196449 8.074864 6.487037 -14.042697 5.823914 15.094684 -37.810910 0.000000 0.000000 0.000001 -3.767914 8.510334 18.931766 0.000001 -0.000000 0.000002 0.115884 -1.033520 12.794589 -0.000001 -0.000000 0.000001 -0.238720 9.461315 1.884911 0.696245 -2.451499 31.705421 0.178743 -1.279159 15.908791 0.000000 0.000000 -0.000003 -0.642232 6.921360 4.616446 0.435039 -1.967195 24.937699 0.263189 -1.544942 19.334578 0.000000 0.000000 -0.000001 -8.414061 -1.159946 -7.808914 0.946331 -2.816015 37.143668 0.177129 -1.273473 15.836123 -0.000000 0.000000 0.000001 1.100379 11.196792 3.091096 9.516385 4.550948 1.994364 -40.721680 6.531004 -5.450833 -28.200859 0.916089 -10.433105 -0.000001 0.000001 -0.000000 -2.223805 -7.619651 -2.388240 13.197965 2.953122 -1.145334 -32.376292 -5.063713 4.828817 -41.749767 -1.846916 8.483200 0.000000 -0.000000 0.000000 
-0.086467 42.713600 -7.196304 72.753508 -1.778991 -0.825568 0.795783 -0.149777 0.023596 2.085601 -0.352766 0.674647 0.000000 0.000000 0.000000 2.114178 -0.359899 0.679518 -9.245050 -0.712871 3.181723 -0.016084 2.281407 -4.334584 0.000001 -0.000000 -0.000000 1.118093 -1.112104 0.871086 0.000000 0.000000 0.000000 -53.079674 -52.340351 -60.509213 0.000006 -9.849018 0.000014 10.082048 -18.967726 86.379476 -1.334845 3.243522 11.088833 10.184136 -4.450634 7.605700 1.083472 -7.594407 23.758193 0.000000 0.000001 -0.000003 -4.864712 -13.431212 -17.667932 0.102164 1.090459 -10.704346 0.016738 -0.443115 4.328293 -0.000003 0.000000 0.000000 -3.587269 -14.183175 -13.124469 0.077382 0.950030 -9.312549 0.068584 0.894782 -8.766434 0.000001 -0.000000 0.000003 0.201517 -14.788794 -0.413982 0.436857 2.221713 -22.245906 0.477242 2.317917 -23.265221 0.000001 -0.000000 -0.000001 -11.535563 -10.898834 18.936822 1.498042 3.913517 -41.879527 0.586099 2.556073 -25.825121 -0.000000 -0.000001 0.000003 1.474313 4.460580 14.127447 0.000000 0.000000 0.000000 -54.128064 61.266510 54.462614 -0.000009 13.832713 0.000018 22.245098 4.915919 -81.969619 -0.201458 3.035654 -7.196450 8.074865 6.487032 -14.042696 5.821111 15.095423 -37.810227 0.000000 0.000002 0.000003 -3.767596 8.510444 18.931801 -0.000001 -0.000002 0.000013 0.115883 -1.033520 12.794595 0.000000 0.000000 -0.000001 -0.238718 9.461303 1.884903 0.696239 -2.451484 31.705444 0.178745 -1.279162 15.908795 0.000001 -0.000000 0.000003 -0.642233 6.921374 4.616429 0.435035 -1.967187 24.937721 0.263192 -1.544958 19.334578 0.000001 -0.000000 0.000001 -8.414063 -1.159948 -7.808919 0.946327 -2.816013 37.143668 0.177127 -1.273482 15.836120 -0.000000 0.000000 0.000001 1.066801 11.164847 3.076289 9.436020 4.608017 2.027783 -40.710257 6.538807 -5.449090 -28.276145 0.898084 -10.317764 0.000001 0.000000 -0.000000 -2.276863 -7.595742 -2.382681 13.174444 2.900699 -1.147594 -32.372757 -5.059766 4.816745 -41.678296 -1.844415 8.500059 -0.000000 0.000000 0.000000 
-0.111342 42.769241 -7.208954 72.788001 -1.768139 -0.798662 0.815478 -0.150417 -0.005167 2.128596 -0.354854 0.658855 0.000000 0.000000 0.000000 2.179346 -0.360896 0.666010 -9.248163 -0.714647 3.184085 -0.052982 2.276826 -4.318975 -0.000000 0.000000 0.000000 1.132589 -1.210562 1.194274 0.000000 0.000000 0.000000 -52.684449 -52.210564 -60.149733 -0.000003 -10.381179 -0.000000 9.743756 -18.740632 86.272700 -1.334554 3.240748 11.091279 10.194424 -4.444296 7.597335 1.105721 -7.558059 23.709140 0.000001 0.000000 -0.000002 -4.886518 -13.452813 -17.717512 0.102074 1.089968 -10.699493 0.016721 -0.442811 4.325281 0.000001 0.000000 -0.000001 -3.608462 -14.177792 -13.194767 0.077455 0.950479 -9.316985 0.068881 0.896739 -8.785590 -0.000000 -0.000000 0.000002 0.182762 -14.812117 -0.479762 0.437567 2.223451 -22.263971 0.476062 2.315161 -23.236206 0.000003 0.000000 -0.000002 -11.536192 -10.879850 18.906011 1.502785 3.918783 -41.948993 0.587686 2.559338 -25.860758 0.000001 0.000000 -0.000000 1.294685 4.985075 14.076847 0.000000 0.000000 0.000000 -51.857306 60.370546 52.223958 0.000002 15.798718 -0.000002 22.134505 3.995755 -81.638943 -0.201459 3.035652 -7.196448 8.074864 6.487055 -14.042696 5.817270 15.096461 -37.809325 0.000000 0.000001 0.000003 -3.767150 8.510574 18.931828 0.000001 -0.000001 0.000002 0.115884 -1.033524 12.794592 0.000000 0.000000 0.000000 -0.238719 9.461321 1.884896 0.696240 -2.451494 31.705441 0.178745 -1.279166 15.908805 -0.000001 -0.000000 0.000002 -0.642227 6.921375 4.616404 0.435040 -1.967189 24.937745 0.263190 -1.544934 19.334578 0.000002 -0.000000 0.000004 -8.414068 -1.159936 -7.808913 0.946330 -2.816024 37.143662 0.177135 -1.273477 15.836132 -0.000001 -0.000000 0.000002 1.043084 11.124977 3.045758 9.324707 4.654587 2.067148 -40.682704 6.545855 -5.452814 -28.363677 0.878168 -10.190923 0.000000 -0.000000 0.000000 -2.336987 -7.570333 -2.388071 13.151957 2.851848 -1.152785 -32.367614 -5.054015 4.807389 -41.623456 -1.843328 8.505595 0.000001 0.000001 -0.000000 
